<svg width="21" height="26" fill="none" xmlns="http://www.w3.org/2000/svg"><path d="M17.484 13.346a5.737 5.737 0 012.71-4.775 5.897 5.897 0 00-4.59-2.481c-1.93-.203-3.803 1.155-4.787 1.155-1.003 0-2.518-1.135-4.15-1.102a6.163 6.163 0 00-5.143 3.138c-2.225 3.85-.566 9.51 1.565 12.622 1.066 1.524 2.312 3.227 3.942 3.166 1.595-.066 2.19-1.017 4.116-1.017 1.908 0 2.467 1.017 4.13.979 1.711-.028 2.79-1.531 3.818-3.07a12.606 12.606 0 001.747-3.556 5.548 5.548 0 01-3.358-5.059zm-3.141-9.303A5.603 5.603 0 0015.625.029a5.701 5.701 0 00-3.69 1.908 5.38 5.38 0 00-1.314 3.866 4.769 4.769 0 003.722-1.76z" fill="#fff"/></svg>