<svg width="28" height="30" fill="none" xmlns="http://www.w3.org/2000/svg"><g filter="url(#filter0_ii_12_9)"><path d="M1.06.669c-.337.354-.536.904-.536 1.615v25.434c0 .713.2 1.261.535 1.616l.086.082L15.46 15.17v-.336L1.145.585l-.086.084z" fill="url(#paint0_linear_12_9)"/><path d="M20.232 19.92l-4.77-4.751v-.336l4.771-4.75.108.062 5.654 3.197c1.614.913 1.614 2.407 0 3.32l-5.654 3.198-.109.06z" fill="url(#paint1_linear_12_9)"/><g filter="url(#filter1_i_12_9)"><path d="M20.341 19.859L15.46 15 1.06 29.334c.53.56 1.41.63 2.4.07l16.881-9.545z" fill="url(#paint2_linear_12_9)"/></g><path d="M20.341 10.143L3.461.6c-.99-.56-1.87-.49-2.402.07l14.402 14.333 4.88-4.859z" fill="url(#paint3_linear_12_9)"/></g><defs><linearGradient id="paint0_linear_12_9" x1="14.192" y1="2.015" x2="-5.107" y2="21.408" gradientUnits="userSpaceOnUse"><stop stop-color="#00A0FF"/><stop offset=".007" stop-color="#00A1FF"/><stop offset=".26" stop-color="#00BEFF"/><stop offset=".512" stop-color="#00D2FF"/><stop offset=".76" stop-color="#00DFFF"/><stop offset="1" stop-color="#00E3FF"/></linearGradient><linearGradient id="paint1_linear_12_9" x1="28.096" y1="15.001" x2=".137" y2="15.001" gradientUnits="userSpaceOnUse"><stop stop-color="#FFE000"/><stop offset=".409" stop-color="#FFBD00"/><stop offset=".775" stop-color="orange"/><stop offset="1" stop-color="#FF9C00"/></linearGradient><linearGradient id="paint2_linear_12_9" x1="17.69" y1="17.639" x2="-8.482" y2="43.938" gradientUnits="userSpaceOnUse"><stop stop-color="#FF3A44"/><stop offset="1" stop-color="#C31162"/></linearGradient><linearGradient id="paint3_linear_12_9" x1="-2.567" y1="-7.797" x2="9.119" y2="3.946" gradientUnits="userSpaceOnUse"><stop stop-color="#32A071"/><stop offset=".069" stop-color="#2DA771"/><stop offset=".476" stop-color="#15CF74"/><stop offset=".801" stop-color="#06E775"/><stop offset="1" stop-color="#00F076"/></linearGradient><filter id="filter0_ii_12_9" x=".524" y=".212" width="26.681" height="29.579" filterUnits="userSpaceOnUse" color-interpolation-filters="sRGB"><feFlood flood-opacity="0" result="BackgroundImageFix"/><feBlend in="SourceGraphic" in2="BackgroundImageFix" result="shape"/><feColorMatrix in="SourceAlpha" values="0 0 0 0 0 0 0 0 0 0 0 0 0 0 0 0 0 0 127 0" result="hardAlpha"/><feOffset dy="-.15"/><feComposite in2="hardAlpha" operator="arithmetic" k2="-1" k3="1"/><feColorMatrix values="0 0 0 0 0 0 0 0 0 0 0 0 0 0 0 0 0 0 0.12 0"/><feBlend in2="shape" result="effect1_innerShadow_12_9"/><feColorMatrix in="SourceAlpha" values="0 0 0 0 0 0 0 0 0 0 0 0 0 0 0 0 0 0 127 0" result="hardAlpha"/><feOffset dy=".15"/><feComposite in2="hardAlpha" operator="arithmetic" k2="-1" k3="1"/><feColorMatrix values="0 0 0 0 1 0 0 0 0 1 0 0 0 0 1 0 0 0 0.25 0"/><feBlend in2="effect1_innerShadow_12_9" result="effect2_innerShadow_12_9"/></filter><filter id="filter1_i_12_9" x="1.059" y="15.001" width="19.282" height="14.79" filterUnits="userSpaceOnUse" color-interpolation-filters="sRGB"><feFlood flood-opacity="0" result="BackgroundImageFix"/><feBlend in="SourceGraphic" in2="BackgroundImageFix" result="shape"/><feColorMatrix in="SourceAlpha" values="0 0 0 0 0 0 0 0 0 0 0 0 0 0 0 0 0 0 127 0" result="hardAlpha"/><feOffset dy="-.15"/><feComposite in2="hardAlpha" operator="arithmetic" k2="-1" k3="1"/><feColorMatrix values="0 0 0 0 0 0 0 0 0 0 0 0 0 0 0 0 0 0 0.08 0"/><feBlend in2="shape" result="effect1_innerShadow_12_9"/></filter></defs></svg>