<svg width="17" height="16" fill="none" xmlns="http://www.w3.org/2000/svg"><path d="M10.474 1.806h4.113l1.042 5.84-5.155-.95v-4.89z" fill="#fff"/><path fill-rule="evenodd" clip-rule="evenodd" d="M11.772 0c.537 0 1.072.075 1.581.244 3.138 1.01 4.268 4.421 3.324 7.402a10.703 10.703 0 01-2.558 4.05 32.638 32.638 0 01-5.381 4.177L8.525 16l-.22-.136a32.34 32.34 0 01-5.414-4.176A10.877 10.877 0 01.33 7.646C-.63 4.666.5 1.255 3.672.226c.246-.084.5-.142.755-.175h.102c.24-.035.476-.05.714-.05h.094a5.346 5.346 0 011.556.277h.05c.034.016.06.034.077.05.188.06.365.127.535.22L7.88.69c.078.04.166.104.242.158.048.035.091.066.124.086l.042.024c.073.043.149.086.213.135A5.356 5.356 0 0111.772 0zm2.261 6.063a.696.696 0 00.672-.64v-.1a2.78 2.78 0 00-1.793-2.662.682.682 0 00-.859.421.687.687 0 00.425.867c.545.202.91.733.91 1.322v.026a.72.72 0 00.16.522.715.715 0 00.485.244z" fill="#fff"/></svg>