<svg width="15" height="18" fill="none" xmlns="http://www.w3.org/2000/svg"><path fill-rule="evenodd" clip-rule="evenodd" d="M4.617 7.527a2.876 2.876 0 012.884-2.869 2.876 2.876 0 012.882 2.87 2.876 2.876 0 01-2.882 2.868 2.876 2.876 0 01-2.884-2.869zM7.5 6.258c-.715 0-1.284.573-1.284 1.27 0 .694.569 1.267 1.284 1.267.713 0 1.282-.573 1.282-1.268 0-.696-.569-1.269-1.282-1.269z" fill="#3D3D3F"/><path fill-rule="evenodd" clip-rule="evenodd" d="M7.5 2.121a5.454 5.454 0 00-5.45 5.458c0 1.913 1.156 3.885 2.547 5.44a13.383 13.383 0 001.978 1.823c.294.216.546.373.738.473.09.047.15.072.187.086.036-.014.097-.04.187-.086.192-.1.443-.257.737-.473a13.388 13.388 0 001.98-1.823c1.39-1.555 2.546-3.527 2.546-5.44A5.455 5.455 0 007.5 2.121zM.45 7.579C.45 3.683 3.605.521 7.5.521s7.05 3.161 7.05 7.058c0 2.502-1.47 4.848-2.954 6.507a14.98 14.98 0 01-2.225 2.045 7.446 7.446 0 01-.948.604c-.248.129-.59.28-.923.28-.335 0-.676-.151-.924-.28a7.445 7.445 0 01-.948-.604 14.983 14.983 0 01-2.224-2.045C1.92 12.426.45 10.081.45 7.579z" fill="#3D3D3F"/></svg>