<svg width="33" height="39" fill="none" xmlns="http://www.w3.org/2000/svg"><path fill-rule="evenodd" clip-rule="evenodd" d="M17.666 25.162c5.236-1.414 8.334-6.805 6.92-12.04-1.414-5.237-6.805-8.335-12.04-6.92-5.236 1.413-8.334 6.804-6.92 12.04 1.414 5.236 6.804 8.334 12.04 6.92zm.652 2.413C24.887 25.801 28.774 19.038 27 12.47c-1.774-6.568-8.538-10.455-15.106-8.681-6.569 1.774-10.456 8.537-8.682 15.106 1.774 6.568 8.537 10.455 15.106 8.681z" fill="#fff"/><path fill-rule="evenodd" clip-rule="evenodd" d="M11.607 10.672a1.25 1.25 0 01.88-1.533 7.82 7.82 0 019.59 5.51 1.25 1.25 0 11-2.413.653 5.32 5.32 0 00-6.524-3.75 1.25 1.25 0 01-1.533-.88zm14.981 15.244a1.25 1.25 0 011.768.012l3.832 3.881a1.25 1.25 0 11-1.778 1.757l-3.833-3.882a1.25 1.25 0 01.011-1.768z" fill="#fff"/></svg>